<?xml version="1.0" encoding="utf-8" ?>
<svg baseProfile="tiny" height="100%" version="1.2" width="100%" xmlns="http://www.w3.org/2000/svg" xmlns:ev="http://www.w3.org/2001/xml-events" xmlns:xlink="http://www.w3.org/1999/xlink"><defs /><path d="M 853,570 L 853,647 L 886,647 L 886,636 L 866,636 L 865,635 L 865,613 L 866,612 L 882,612 L 882,602 L 866,602 L 865,601 L 865,581 L 866,580 L 885,580 L 886,579 L 885,578 L 885,571 L 886,570 Z" fill="#1E3A8A" /><path d="M 820,570 L 820,647 L 832,647 L 832,570 Z" fill="#1E3A8A" /><path d="M 765,570 L 765,580 L 778,580 L 779,581 L 779,647 L 791,647 L 791,581 L 792,580 L 804,580 L 804,570 Z" fill="#1E3A8A" /><path d="M 714,570 L 714,647 L 726,647 L 726,616 L 727,615 L 732,615 L 733,616 L 733,618 L 734,619 L 734,622 L 735,623 L 735,625 L 736,626 L 736,629 L 737,630 L 737,632 L 738,633 L 738,635 L 739,636 L 739,639 L 740,640 L 740,642 L 741,643 L 741,645 L 742,646 L 742,647 L 755,647 L 755,646 L 754,645 L 754,642 L 753,641 L 753,639 L 752,638 L 752,636 L 751,635 L 751,633 L 750,632 L 750,630 L 749,629 L 749,627 L 748,626 L 748,624 L 747,623 L 747,621 L 746,620 L 746,617 L 745,616 L 745,614 L 744,613 L 750,607 L 750,606 L 751,605 L 751,604 L 752,603 L 752,583 L 751,582 L 751,579 L 750,578 L 750,577 L 745,572 L 744,572 L 743,571 L 741,571 L 740,570 Z M 726,581 L 727,580 L 735,580 L 736,581 L 737,581 L 738,582 L 738,583 L 739,584 L 739,585 L 740,586 L 740,599 L 739,600 L 739,601 L 737,603 L 736,603 L 735,604 L 727,604 L 726,603 Z" fill="#1E3A8A" /><path d="M 663,570 L 663,647 L 696,647 L 696,636 L 676,636 L 675,635 L 675,613 L 676,612 L 692,612 L 692,602 L 676,602 L 675,601 L 675,581 L 676,580 L 696,580 L 696,570 Z" fill="#1E3A8A" /><path d="M 607,570 L 607,647 L 619,647 L 619,616 L 620,615 L 631,615 L 632,614 L 635,614 L 636,613 L 637,613 L 643,607 L 643,606 L 644,605 L 644,602 L 645,601 L 645,585 L 644,584 L 644,581 L 643,580 L 643,578 L 641,576 L 641,575 L 639,573 L 638,573 L 636,571 L 634,571 L 633,570 Z M 619,581 L 620,580 L 628,580 L 632,584 L 632,586 L 633,587 L 633,599 L 632,600 L 632,601 L 629,604 L 627,604 L 626,605 L 620,605 L 619,604 Z" fill="#1E3A8A" /><path d="M 490,570 L 490,647 L 501,647 L 502,646 L 502,617 L 501,616 L 502,615 L 507,615 L 508,616 L 508,618 L 509,619 L 509,622 L 510,623 L 510,625 L 511,626 L 511,629 L 512,630 L 512,632 L 513,633 L 513,636 L 514,637 L 514,639 L 515,640 L 515,642 L 516,643 L 516,646 L 517,647 L 530,647 L 530,646 L 529,645 L 529,643 L 528,642 L 528,640 L 527,639 L 527,636 L 526,635 L 526,633 L 525,632 L 525,630 L 524,629 L 524,627 L 523,626 L 523,624 L 522,623 L 522,621 L 521,620 L 521,617 L 520,616 L 520,614 L 519,613 L 521,611 L 522,611 L 525,608 L 525,607 L 526,606 L 526,605 L 527,604 L 527,600 L 528,599 L 528,587 L 527,586 L 527,580 L 526,579 L 526,578 L 525,577 L 525,576 L 521,572 L 520,572 L 519,571 L 518,571 L 517,570 Z M 501,581 L 502,580 L 510,580 L 511,581 L 512,581 L 514,583 L 514,584 L 515,585 L 515,599 L 514,600 L 514,601 L 512,603 L 511,603 L 510,604 L 502,604 L 501,603 L 501,602 L 502,601 L 502,582 Z" fill="#1E3A8A" /><path d="M 435,570 L 435,646 L 436,647 L 447,647 L 447,616 L 448,615 L 458,615 L 459,614 L 463,614 L 464,613 L 465,613 L 466,612 L 467,612 L 470,609 L 470,608 L 471,607 L 471,606 L 472,605 L 472,603 L 473,602 L 473,583 L 472,582 L 472,580 L 471,579 L 471,578 L 470,577 L 470,576 L 466,572 L 465,572 L 464,571 L 463,571 L 462,570 Z M 447,581 L 448,580 L 456,580 L 457,581 L 458,581 L 460,583 L 460,585 L 461,586 L 461,600 L 460,601 L 460,602 L 458,604 L 456,604 L 455,605 L 448,605 L 447,604 Z" fill="#1E3A8A" /><path d="M 914,569 L 913,570 L 912,570 L 911,571 L 910,571 L 909,572 L 908,572 L 904,576 L 904,577 L 903,578 L 903,579 L 902,580 L 902,582 L 901,583 L 901,592 L 902,593 L 902,596 L 903,597 L 903,598 L 904,599 L 904,600 L 905,601 L 905,602 L 917,614 L 918,614 L 924,620 L 924,621 L 926,623 L 926,625 L 927,626 L 927,631 L 926,632 L 926,633 L 925,634 L 925,635 L 924,636 L 923,636 L 922,637 L 917,637 L 916,636 L 915,636 L 913,634 L 913,633 L 912,632 L 912,629 L 911,628 L 911,625 L 912,624 L 909,624 L 908,625 L 905,625 L 904,626 L 901,626 L 900,627 L 900,632 L 901,633 L 901,636 L 902,637 L 902,639 L 904,641 L 904,642 L 907,645 L 908,645 L 910,647 L 912,647 L 913,648 L 924,648 L 925,647 L 927,647 L 928,646 L 929,646 L 930,645 L 931,645 L 936,640 L 936,639 L 937,638 L 937,637 L 938,636 L 938,634 L 939,633 L 939,623 L 938,622 L 938,620 L 937,619 L 937,618 L 936,617 L 936,616 L 935,615 L 935,614 L 915,594 L 915,593 L 914,592 L 914,591 L 913,590 L 913,584 L 914,583 L 914,582 L 916,580 L 917,580 L 918,579 L 922,579 L 923,580 L 924,580 L 925,581 L 925,582 L 926,583 L 926,588 L 927,589 L 926,590 L 932,590 L 933,589 L 938,589 L 939,588 L 939,586 L 938,585 L 938,580 L 937,579 L 937,578 L 936,577 L 936,576 L 931,571 L 930,571 L 929,570 L 927,570 L 926,569 Z" fill="#1E3A8A" /><path d="M 565,568 L 564,569 L 560,569 L 559,570 L 557,570 L 556,571 L 555,571 L 554,572 L 553,572 L 550,575 L 550,576 L 548,578 L 548,580 L 547,581 L 547,584 L 546,585 L 546,631 L 547,632 L 547,635 L 548,636 L 548,638 L 549,639 L 549,640 L 554,645 L 555,645 L 556,646 L 557,646 L 558,647 L 561,647 L 562,648 L 571,648 L 572,647 L 575,647 L 576,646 L 577,646 L 578,645 L 579,645 L 584,640 L 584,639 L 585,638 L 585,637 L 586,636 L 586,634 L 587,633 L 587,583 L 586,582 L 586,580 L 585,579 L 585,578 L 584,577 L 584,576 L 579,571 L 578,571 L 577,570 L 575,570 L 574,569 L 570,569 L 569,568 Z M 564,581 L 565,580 L 569,580 L 570,581 L 571,581 L 573,583 L 573,584 L 574,585 L 574,632 L 570,636 L 563,636 L 559,632 L 559,585 L 563,581 Z" fill="#1E3A8A" /><path d="M 290,452 L 289,453 L 284,453 L 283,454 L 280,454 L 279,455 L 277,455 L 276,456 L 275,456 L 274,457 L 272,457 L 271,458 L 270,458 L 269,459 L 268,459 L 267,460 L 266,460 L 265,461 L 264,461 L 262,463 L 261,463 L 260,464 L 260,484 L 261,485 L 262,485 L 263,484 L 265,484 L 266,483 L 267,483 L 268,482 L 269,482 L 270,481 L 272,481 L 273,480 L 274,480 L 275,479 L 277,479 L 278,478 L 281,478 L 282,477 L 287,477 L 288,476 L 303,476 L 304,477 L 308,477 L 309,478 L 310,478 L 311,479 L 312,479 L 313,480 L 314,480 L 318,484 L 318,485 L 319,486 L 319,488 L 320,489 L 320,499 L 319,500 L 319,502 L 318,503 L 318,504 L 312,510 L 311,510 L 310,511 L 309,511 L 308,512 L 306,512 L 305,513 L 302,513 L 301,514 L 295,514 L 294,515 L 284,515 L 284,537 L 299,537 L 300,538 L 306,538 L 307,539 L 310,539 L 311,540 L 312,540 L 313,541 L 314,541 L 315,542 L 316,542 L 321,547 L 321,548 L 322,549 L 322,550 L 323,551 L 323,553 L 324,554 L 324,564 L 323,565 L 323,567 L 322,568 L 322,569 L 317,574 L 316,574 L 315,575 L 314,575 L 313,576 L 312,576 L 311,577 L 308,577 L 307,578 L 289,578 L 288,577 L 283,577 L 282,576 L 279,576 L 278,575 L 276,575 L 275,574 L 273,574 L 272,573 L 271,573 L 270,572 L 269,572 L 268,571 L 267,571 L 266,570 L 265,570 L 264,569 L 263,569 L 262,568 L 261,568 L 260,569 L 260,594 L 261,595 L 262,595 L 263,596 L 264,596 L 265,597 L 267,597 L 268,598 L 269,598 L 270,599 L 272,599 L 273,600 L 276,600 L 277,601 L 280,601 L 281,602 L 286,602 L 287,603 L 312,603 L 313,602 L 318,602 L 319,601 L 321,601 L 322,600 L 325,600 L 326,599 L 327,599 L 328,598 L 329,598 L 330,597 L 331,597 L 332,596 L 333,596 L 334,595 L 335,595 L 337,593 L 338,593 L 347,584 L 347,583 L 349,581 L 349,580 L 350,579 L 350,578 L 351,577 L 351,576 L 352,575 L 352,573 L 353,572 L 353,569 L 354,568 L 354,552 L 353,551 L 353,548 L 352,547 L 352,545 L 351,544 L 351,543 L 350,542 L 350,541 L 349,540 L 349,539 L 340,530 L 339,530 L 337,528 L 336,528 L 335,527 L 334,527 L 333,526 L 332,526 L 331,525 L 330,525 L 329,524 L 328,524 L 327,523 L 328,522 L 329,522 L 330,521 L 331,521 L 332,520 L 333,520 L 335,518 L 336,518 L 344,510 L 344,509 L 345,508 L 345,507 L 346,506 L 346,505 L 347,504 L 347,503 L 348,502 L 348,500 L 349,499 L 349,482 L 348,481 L 348,478 L 347,477 L 347,475 L 346,474 L 346,473 L 345,472 L 345,471 L 343,469 L 343,468 L 336,461 L 335,461 L 333,459 L 332,459 L 331,458 L 330,458 L 329,457 L 327,457 L 326,456 L 325,456 L 324,455 L 322,455 L 321,454 L 317,454 L 316,453 L 311,453 L 310,452 Z" fill="#1E3A8A" /><path d="M 191,451 L 190,452 L 183,452 L 182,453 L 178,453 L 177,454 L 174,454 L 173,455 L 171,455 L 170,456 L 168,456 L 167,457 L 166,457 L 165,458 L 164,458 L 163,459 L 162,459 L 161,460 L 160,460 L 158,462 L 157,462 L 153,466 L 152,466 L 148,470 L 148,471 L 144,475 L 144,476 L 142,478 L 142,479 L 141,480 L 141,481 L 140,482 L 140,483 L 139,484 L 139,485 L 138,486 L 138,487 L 137,488 L 137,489 L 136,490 L 136,492 L 135,493 L 135,495 L 134,496 L 134,498 L 133,499 L 133,502 L 132,503 L 132,507 L 131,508 L 131,514 L 130,515 L 130,541 L 131,542 L 131,549 L 132,550 L 132,554 L 133,555 L 133,558 L 134,559 L 134,561 L 135,562 L 135,564 L 136,565 L 136,566 L 137,567 L 137,569 L 138,570 L 138,571 L 139,572 L 139,573 L 141,575 L 141,576 L 142,577 L 142,578 L 145,581 L 145,582 L 152,589 L 153,589 L 156,592 L 157,592 L 159,594 L 160,594 L 161,595 L 162,595 L 164,597 L 166,597 L 167,598 L 168,598 L 169,599 L 171,599 L 172,600 L 174,600 L 175,601 L 178,601 L 179,602 L 183,602 L 184,603 L 193,603 L 194,604 L 203,604 L 204,603 L 212,603 L 213,602 L 218,602 L 219,601 L 221,601 L 222,600 L 225,600 L 226,599 L 227,599 L 228,598 L 230,598 L 231,597 L 232,597 L 233,596 L 234,596 L 235,595 L 236,595 L 237,594 L 238,594 L 240,592 L 240,517 L 192,517 L 192,540 L 211,540 L 212,541 L 212,576 L 211,577 L 210,577 L 209,578 L 189,578 L 188,577 L 186,577 L 185,576 L 183,576 L 182,575 L 181,575 L 180,574 L 179,574 L 177,572 L 176,572 L 171,567 L 171,566 L 168,563 L 168,562 L 167,561 L 167,560 L 166,559 L 166,558 L 165,557 L 165,556 L 164,555 L 164,553 L 163,552 L 163,549 L 162,548 L 162,544 L 161,543 L 161,535 L 160,534 L 160,518 L 161,517 L 161,509 L 162,508 L 162,505 L 163,504 L 163,502 L 164,501 L 164,499 L 165,498 L 165,497 L 166,496 L 166,495 L 167,494 L 167,493 L 170,490 L 170,489 L 174,485 L 175,485 L 178,482 L 179,482 L 180,481 L 181,481 L 182,480 L 183,480 L 184,479 L 186,479 L 187,478 L 190,478 L 191,477 L 199,477 L 200,476 L 202,476 L 203,477 L 212,477 L 213,478 L 218,478 L 219,479 L 221,479 L 222,480 L 225,480 L 226,481 L 228,481 L 229,482 L 232,482 L 232,478 L 233,477 L 233,473 L 234,472 L 234,467 L 235,466 L 235,462 L 236,461 L 236,458 L 235,458 L 234,457 L 231,457 L 230,456 L 228,456 L 227,455 L 224,455 L 223,454 L 220,454 L 219,453 L 214,453 L 213,452 L 205,452 L 204,451 Z" fill="#1E3A8A" /><path d="M 826,424 L 825,425 L 825,429 L 824,430 L 824,434 L 823,435 L 823,439 L 822,440 L 822,444 L 821,445 L 821,449 L 820,450 L 820,454 L 819,455 L 819,460 L 818,461 L 818,465 L 817,466 L 817,470 L 816,471 L 816,475 L 815,476 L 815,480 L 814,481 L 814,485 L 813,486 L 813,490 L 812,491 L 812,495 L 811,496 L 811,500 L 810,501 L 810,505 L 809,506 L 809,510 L 808,511 L 808,515 L 807,516 L 807,520 L 806,521 L 806,526 L 805,527 L 805,531 L 804,532 L 804,535 L 821,535 L 821,533 L 822,532 L 822,527 L 823,526 L 823,521 L 824,520 L 824,515 L 825,514 L 825,511 L 827,509 L 828,510 L 829,509 L 832,509 L 833,510 L 834,510 L 835,509 L 839,509 L 840,510 L 846,510 L 847,511 L 847,514 L 848,515 L 848,520 L 849,521 L 849,527 L 850,528 L 850,533 L 851,534 L 869,534 L 869,531 L 868,530 L 868,526 L 867,525 L 867,522 L 866,521 L 866,517 L 865,516 L 865,512 L 864,511 L 864,507 L 863,506 L 863,502 L 862,501 L 862,497 L 861,496 L 861,492 L 860,491 L 860,487 L 859,486 L 859,482 L 858,481 L 858,477 L 857,476 L 857,472 L 856,471 L 856,467 L 855,466 L 855,462 L 854,461 L 854,458 L 853,457 L 853,452 L 852,451 L 852,447 L 851,446 L 851,443 L 850,442 L 850,438 L 849,437 L 849,433 L 848,432 L 848,428 L 847,427 L 847,424 Z M 835,447 L 836,446 L 837,447 L 837,453 L 838,454 L 838,459 L 839,460 L 839,465 L 840,466 L 840,471 L 841,472 L 841,478 L 842,479 L 842,483 L 843,484 L 843,489 L 844,490 L 844,494 L 845,495 L 844,496 L 829,496 L 828,495 L 828,490 L 829,489 L 829,484 L 830,483 L 830,478 L 831,477 L 831,471 L 832,470 L 832,466 L 833,465 L 833,459 L 834,458 L 834,453 L 835,452 Z" fill="#1E3A8A" /><path d="M 711,424 L 711,535 L 726,535 L 726,453 L 727,452 L 728,453 L 728,456 L 729,457 L 729,461 L 730,462 L 730,465 L 731,466 L 731,469 L 732,470 L 732,473 L 733,474 L 733,477 L 734,478 L 734,482 L 735,483 L 735,486 L 736,487 L 736,490 L 737,491 L 737,494 L 738,495 L 738,498 L 739,499 L 739,502 L 740,503 L 740,507 L 741,508 L 741,511 L 742,512 L 742,515 L 743,516 L 743,519 L 744,520 L 744,524 L 745,525 L 745,528 L 746,529 L 746,532 L 747,533 L 747,535 L 754,535 L 755,534 L 755,531 L 756,530 L 756,526 L 757,525 L 757,522 L 758,521 L 758,517 L 759,516 L 759,513 L 760,512 L 760,508 L 761,507 L 761,504 L 762,503 L 762,499 L 763,498 L 763,495 L 764,494 L 764,491 L 765,490 L 765,486 L 766,485 L 766,482 L 767,481 L 767,478 L 768,477 L 768,474 L 769,473 L 769,469 L 770,468 L 770,465 L 771,464 L 771,460 L 772,459 L 772,455 L 773,454 L 773,451 L 774,450 L 775,451 L 775,535 L 790,535 L 790,424 L 767,424 L 766,425 L 766,428 L 765,429 L 765,433 L 764,434 L 764,438 L 763,439 L 763,443 L 762,444 L 762,447 L 761,448 L 761,452 L 760,453 L 760,457 L 759,458 L 759,461 L 758,462 L 758,466 L 757,467 L 757,470 L 756,471 L 756,475 L 755,476 L 755,480 L 754,481 L 754,484 L 753,485 L 753,489 L 752,490 L 752,494 L 751,495 L 750,494 L 750,492 L 749,491 L 749,487 L 748,486 L 748,483 L 747,482 L 747,478 L 746,477 L 746,474 L 745,473 L 745,469 L 744,468 L 744,465 L 743,464 L 743,461 L 742,460 L 742,456 L 741,455 L 741,452 L 740,451 L 740,447 L 739,446 L 739,443 L 738,442 L 738,439 L 737,438 L 737,434 L 736,433 L 736,430 L 735,429 L 735,425 L 734,424 Z M 725,450 L 726,449 L 727,450 L 727,451 L 726,452 L 725,451 Z" fill="#1E3A8A" /><path d="M 562,424 L 562,498 L 563,499 L 562,500 L 562,514 L 563,515 L 562,516 L 562,519 L 563,520 L 563,521 L 562,522 L 563,523 L 563,533 L 562,534 L 563,535 L 580,535 L 580,491 L 579,490 L 581,488 L 582,489 L 586,489 L 587,488 L 589,490 L 589,493 L 590,494 L 590,496 L 591,497 L 591,500 L 592,501 L 592,503 L 593,504 L 593,507 L 594,508 L 594,510 L 595,511 L 595,514 L 596,515 L 596,517 L 597,518 L 597,521 L 598,522 L 598,524 L 599,525 L 599,527 L 600,528 L 600,530 L 601,531 L 601,534 L 602,535 L 621,535 L 621,534 L 620,533 L 620,532 L 619,531 L 619,529 L 618,528 L 618,526 L 617,525 L 617,523 L 616,522 L 616,520 L 615,519 L 615,517 L 614,516 L 614,514 L 613,513 L 613,511 L 612,510 L 612,508 L 611,507 L 611,505 L 610,504 L 610,502 L 609,501 L 609,498 L 608,497 L 608,495 L 607,494 L 607,492 L 606,491 L 606,487 L 605,486 L 605,485 L 606,484 L 607,484 L 608,483 L 609,483 L 614,478 L 614,477 L 615,476 L 615,475 L 616,474 L 616,471 L 617,470 L 617,463 L 618,462 L 618,451 L 617,450 L 617,443 L 616,442 L 616,439 L 615,438 L 615,437 L 614,436 L 614,435 L 613,434 L 613,433 L 609,429 L 608,429 L 606,427 L 605,427 L 604,426 L 602,426 L 601,425 L 598,425 L 597,424 Z M 579,440 L 580,439 L 592,439 L 593,440 L 594,440 L 598,444 L 598,445 L 599,446 L 599,449 L 600,450 L 600,464 L 599,465 L 599,467 L 598,468 L 598,469 L 594,473 L 592,473 L 591,474 L 581,474 L 579,472 L 580,471 L 580,441 Z" fill="#1E3A8A" /><path d="M 494,424 L 494,439 L 513,439 L 514,440 L 514,535 L 532,535 L 532,534 L 531,533 L 531,531 L 532,530 L 532,528 L 531,527 L 531,523 L 532,522 L 531,521 L 532,520 L 532,519 L 531,518 L 531,515 L 532,514 L 531,513 L 532,512 L 531,511 L 531,491 L 532,490 L 531,489 L 531,453 L 532,452 L 532,450 L 531,449 L 531,448 L 532,447 L 532,446 L 531,445 L 532,444 L 532,443 L 531,442 L 531,440 L 532,439 L 550,439 L 550,424 Z" fill="#1E3A8A" /><path d="M 923,423 L 922,424 L 922,488 L 923,489 L 923,492 L 922,493 L 921,492 L 921,491 L 920,490 L 920,487 L 919,486 L 919,484 L 918,483 L 918,481 L 917,480 L 917,478 L 916,477 L 916,475 L 915,474 L 915,471 L 914,470 L 914,468 L 913,467 L 913,465 L 912,464 L 912,462 L 911,461 L 911,459 L 910,458 L 910,455 L 909,454 L 909,452 L 908,451 L 908,449 L 907,448 L 907,446 L 906,445 L 906,443 L 905,442 L 905,440 L 904,439 L 904,436 L 903,435 L 903,433 L 902,432 L 902,430 L 901,429 L 901,427 L 900,426 L 900,424 L 881,424 L 881,535 L 897,535 L 897,466 L 896,465 L 896,464 L 897,463 L 899,465 L 899,468 L 900,469 L 900,471 L 901,472 L 901,474 L 902,475 L 902,477 L 903,478 L 903,481 L 904,482 L 904,484 L 905,485 L 905,487 L 906,488 L 906,490 L 907,491 L 907,493 L 908,494 L 908,496 L 909,497 L 909,499 L 910,500 L 910,502 L 911,503 L 911,506 L 912,507 L 912,509 L 913,510 L 913,512 L 914,513 L 914,515 L 915,516 L 915,518 L 916,519 L 916,521 L 917,522 L 917,525 L 918,526 L 918,528 L 919,529 L 919,531 L 920,532 L 920,534 L 921,535 L 938,535 L 938,424 L 924,424 Z" fill="#1E3A8A" /><path d="M 656,422 L 655,423 L 652,423 L 651,424 L 650,424 L 649,425 L 647,425 L 645,427 L 644,427 L 639,432 L 639,433 L 638,434 L 638,435 L 637,436 L 637,437 L 636,438 L 636,441 L 635,442 L 635,514 L 636,515 L 636,518 L 637,519 L 637,521 L 638,522 L 638,523 L 639,524 L 639,525 L 645,531 L 646,531 L 648,533 L 650,533 L 651,534 L 652,534 L 653,535 L 656,535 L 657,536 L 671,536 L 672,535 L 674,535 L 675,534 L 677,534 L 678,533 L 679,533 L 680,532 L 681,532 L 683,530 L 684,530 L 687,527 L 687,526 L 689,524 L 689,523 L 690,522 L 690,521 L 691,520 L 691,518 L 692,517 L 692,512 L 693,511 L 693,446 L 692,445 L 692,441 L 691,440 L 691,438 L 690,437 L 690,435 L 688,433 L 688,432 L 683,427 L 682,427 L 681,426 L 680,426 L 679,425 L 678,425 L 677,424 L 676,424 L 675,423 L 672,423 L 671,422 Z M 657,439 L 658,438 L 669,438 L 670,439 L 671,439 L 674,442 L 674,444 L 675,445 L 675,514 L 674,515 L 674,516 L 672,518 L 671,518 L 670,519 L 669,519 L 668,520 L 659,520 L 658,519 L 657,519 L 653,515 L 653,513 L 652,512 L 652,445 L 653,444 L 653,443 L 654,442 L 654,441 L 656,439 Z" fill="#1E3A8A" /><path d="M 456,422 L 455,423 L 451,423 L 450,424 L 449,424 L 448,425 L 446,425 L 444,427 L 443,427 L 437,433 L 437,434 L 436,435 L 436,436 L 435,437 L 435,438 L 434,439 L 434,441 L 433,442 L 433,447 L 432,448 L 432,451 L 433,452 L 433,458 L 434,459 L 434,461 L 435,462 L 435,464 L 436,465 L 436,466 L 437,467 L 437,468 L 439,470 L 439,471 L 442,474 L 442,475 L 449,482 L 450,482 L 455,487 L 456,487 L 468,499 L 468,500 L 469,501 L 469,502 L 470,503 L 470,515 L 469,516 L 469,517 L 466,520 L 465,520 L 464,521 L 455,521 L 454,520 L 453,520 L 451,518 L 451,517 L 450,516 L 450,515 L 449,514 L 449,512 L 448,511 L 448,502 L 446,502 L 445,503 L 441,503 L 440,504 L 437,504 L 436,505 L 433,505 L 432,506 L 431,506 L 431,513 L 432,514 L 432,518 L 433,519 L 433,520 L 434,521 L 434,523 L 435,524 L 435,525 L 438,528 L 438,529 L 439,530 L 440,530 L 443,533 L 444,533 L 445,534 L 446,534 L 447,535 L 449,535 L 450,536 L 454,536 L 455,537 L 460,537 L 461,536 L 467,536 L 468,535 L 470,535 L 471,534 L 472,534 L 473,533 L 474,533 L 475,532 L 476,532 L 478,530 L 479,530 L 483,526 L 483,525 L 484,524 L 484,523 L 486,521 L 486,519 L 487,518 L 487,515 L 488,514 L 488,503 L 487,502 L 487,499 L 486,498 L 486,497 L 485,496 L 485,494 L 484,493 L 484,492 L 482,490 L 482,489 L 480,487 L 480,486 L 467,473 L 466,473 L 453,460 L 453,459 L 452,458 L 452,457 L 451,456 L 451,455 L 450,454 L 450,445 L 451,444 L 451,442 L 454,439 L 455,439 L 456,438 L 463,438 L 464,439 L 465,439 L 468,442 L 468,444 L 469,445 L 469,453 L 475,453 L 476,452 L 481,452 L 482,451 L 486,451 L 486,443 L 485,442 L 485,439 L 484,438 L 484,436 L 483,435 L 483,434 L 481,432 L 481,431 L 477,427 L 476,427 L 474,425 L 473,425 L 472,424 L 470,424 L 469,423 L 466,423 L 465,422 Z" fill="#1E3A8A" /><path d="M 230,302 L 229,303 L 228,303 L 224,307 L 223,307 L 216,314 L 215,314 L 209,320 L 208,320 L 203,325 L 202,325 L 195,332 L 194,332 L 187,339 L 186,339 L 180,345 L 179,345 L 172,352 L 171,352 L 164,359 L 163,359 L 157,365 L 156,365 L 149,372 L 148,372 L 142,378 L 141,378 L 134,385 L 133,385 L 126,392 L 125,392 L 118,399 L 117,399 L 112,404 L 111,404 L 104,411 L 103,411 L 97,417 L 96,417 L 90,423 L 89,423 L 82,430 L 81,430 L 80,431 L 80,432 L 79,433 L 79,663 L 81,665 L 352,665 L 354,663 L 354,636 L 352,634 L 110,634 L 109,633 L 109,446 L 113,442 L 114,442 L 120,436 L 121,436 L 129,428 L 130,428 L 136,422 L 137,422 L 144,415 L 145,415 L 152,408 L 153,408 L 160,401 L 161,401 L 167,395 L 168,395 L 175,388 L 176,388 L 183,381 L 184,381 L 190,375 L 191,375 L 197,369 L 198,369 L 204,363 L 205,363 L 211,357 L 212,357 L 219,350 L 220,350 L 226,344 L 227,344 L 231,340 L 234,343 L 235,343 L 241,349 L 242,349 L 247,354 L 248,354 L 254,360 L 255,360 L 262,367 L 263,367 L 269,373 L 270,373 L 276,379 L 277,379 L 284,386 L 285,386 L 291,392 L 292,392 L 299,399 L 300,399 L 306,405 L 307,405 L 314,412 L 315,412 L 321,418 L 322,418 L 329,425 L 330,425 L 338,433 L 339,433 L 348,442 L 349,442 L 356,449 L 357,449 L 366,458 L 367,458 L 375,466 L 376,466 L 380,470 L 381,470 L 382,471 L 384,469 L 383,468 L 383,433 L 376,426 L 375,426 L 366,417 L 365,417 L 357,409 L 356,409 L 348,401 L 347,401 L 340,394 L 339,394 L 332,387 L 331,387 L 324,380 L 323,380 L 316,373 L 315,373 L 309,367 L 308,367 L 301,360 L 300,360 L 294,354 L 293,354 L 287,348 L 286,348 L 280,342 L 279,342 L 273,336 L 272,336 L 266,330 L 265,330 L 259,324 L 258,324 L 252,318 L 251,318 L 245,312 L 244,312 L 238,306 L 237,306 L 233,302 Z" fill="#1E3A8A" /></svg>